<svg width="40" height="40" viewBox="0 0 40 40" fill="none" xmlns="http://www.w3.org/2000/svg">
<g clip-path="url(#clip0_1346_430)">
<path d="M0.0510978 9.12289C0.0510978 9.12289 1.31446 8.87773 1.70258 8.69242C2.73789 8.19781 3.04391 7.43289 3.73164 6.42547C4.62313 5.11961 7.49954 4.52977 7.49954 4.52977L7.58477 0C7.58477 0 13.0401 4.42172 13.9752 5.97289C15.5707 8.61938 16.3738 13.1028 16.3738 13.1028C16.3738 13.1028 16.6056 15.1162 19.3372 17.7873C21.9134 20.3062 31.4133 21.0155 32.4875 32.2792C33.3759 32.1073 34.3108 31.7471 34.8424 31.0356C35.8971 29.6234 35.2128 27.0644 34.4532 25.1662C31.6785 18.2342 31.4225 13.4527 33.7127 11.3383C35.0336 10.1189 36.9576 9.9868 38.9923 10.9759C39.8831 11.4089 40.2527 12.4789 39.8176 13.3658C39.3823 14.2527 38.3077 14.6207 37.4166 14.1872C36.7681 13.8717 36.2902 13.8335 36.1544 13.9585C35.6829 14.3939 35.0571 17.0187 37.7888 23.8437C39.3913 27.847 39.3645 30.9907 37.709 33.1877C36.2992 35.0583 34.0656 35.6975 32.4029 35.901C31.5706 38.977 28.1322 39.8401 26.2083 39.8401C25.0919 39.8401 13.4704 39.8401 12.4426 39.8401C12.4567 39.8541 11.2275 39.7754 11.3676 38.9955C11.6227 37.5745 12.8326 37.128 14.3338 37.1214C15.8349 37.1148 16.2562 37.143 17.2457 37.1602C17.7424 37.1687 12.4636 35.8372 12.8819 31.8339C14.0003 23.876 22.57 27.1501 22.57 27.1501C14.1202 22.9949 12.3504 29.818 12.3504 29.818C12.3379 29.8498 10.3707 38.1377 10.3707 38.1377C10.3707 38.1377 9.92563 39.9985 8.27844 39.9985C7.16219 39.9985 5.38797 39.9985 4.36016 39.9985C4.37422 40.0124 3.145 39.9338 3.28516 39.1539C3.69352 36.8802 5.20141 37.8091 6.85125 35.7294C8.5011 33.6495 7.18118 32.0073 7.18118 32.0073C3.33164 25.6583 6.23547 22.1664 6.08133 18.3239C5.97141 15.5873 4.21157 14.4927 4.21157 14.4927C2.34172 13.6169 1.41289 13.444 0.418988 11.7132C-0.202027 10.6315 0.0510978 9.12289 0.0510978 9.12289Z" fill="white"/>
</g>
<defs>
<clipPath id="clip0_1346_430">
<rect width="40" height="40" fill="white"/>
</clipPath>
</defs>
</svg>
