<svg width="40" height="40" viewBox="0 0 40 40" fill="none" xmlns="http://www.w3.org/2000/svg">
<path d="M38.5665 20.5892C38.1922 21.9106 37.4437 23.0557 36.4604 23.8127C35.6752 24.4181 34.7835 24.7347 33.9066 24.7347C33.5763 24.7347 33.2534 24.6907 32.9342 24.6004C31.7748 24.2687 30.8354 23.3478 30.3584 22.073C29.9218 20.911 29.8924 19.5438 30.2667 18.2221C30.6446 16.9007 31.3931 15.7556 32.3728 14.9986C33.4516 14.1672 34.7359 13.8799 35.899 14.2109C37.0585 14.5426 38.0015 15.4635 38.4785 16.7383C38.9114 17.9004 38.9444 19.2675 38.5665 20.5892ZM14.0337 17.2495C15.4134 17.2495 16.7307 16.4815 17.648 15.1415C18.4809 13.9266 18.9395 12.3353 18.9395 10.6599C18.9395 8.983 18.4809 7.39167 17.648 6.17675C16.7306 4.83714 15.4134 4.06909 14.0337 4.06909C12.6504 4.06909 11.3332 4.83706 10.4159 6.17675C9.58664 7.39167 9.12796 8.983 9.12796 10.6599C9.12796 12.3353 9.58664 13.9266 10.4159 15.1415C11.3332 16.4815 12.6505 17.2495 14.0337 17.2495ZM25.9662 17.2495C27.3496 17.2495 28.6668 16.4815 29.5841 15.1415C30.4134 13.9266 30.872 12.3353 30.872 10.6599C30.872 8.983 30.4134 7.39167 29.5841 6.17675C28.6668 4.83714 27.3495 4.06909 25.9662 4.06909C24.5866 4.06909 23.2693 4.83706 22.352 6.17675C21.5191 7.39167 21.0605 8.983 21.0605 10.6599C21.0605 12.3353 21.5191 13.9266 22.352 15.1415C23.2693 16.4815 24.5866 17.2495 25.9662 17.2495ZM9.73335 18.2229C9.35546 16.9009 8.60695 15.7557 7.62718 14.9987C6.54843 14.1673 5.26421 13.88 4.10101 14.211C2.93789 14.5427 1.99851 15.4636 1.52148 16.7384C1.08851 17.9004 1.05554 19.2676 1.43343 20.5893C1.80773 21.9107 2.55625 23.0558 3.53953 23.8128C4.32476 24.4182 5.2164 24.7348 6.09336 24.7348C6.41992 24.7348 6.74648 24.6907 7.06203 24.6005C8.22515 24.2688 9.16453 23.3478 9.64148 22.0731C10.0783 20.911 10.1077 19.5439 9.73335 18.2229ZM27.1991 21.445C25.1883 19.3314 22.6344 18.1683 20 18.1683C17.3655 18.1683 14.808 19.3314 12.8045 21.445C10.8891 23.4605 9.55359 26.2572 9.03984 29.3214C8.71328 31.276 9.30765 33.1572 10.6763 34.4822C12.1 35.8611 13.9603 36.2798 15.7803 35.6325C17.1269 35.1518 18.5469 34.9082 20 34.9082C21.453 34.9082 22.873 35.1519 24.2197 35.6325C24.7811 35.8321 25.3462 35.9308 25.9002 35.9308C27.1441 35.9308 28.3366 35.4362 29.3199 34.4822C30.6923 33.1573 31.2866 31.276 30.9601 29.3214C30.4464 26.2571 29.1108 23.4604 27.1991 21.445Z" fill="white"/>
</svg>
