<svg width="40" height="40" viewBox="0 0 40 40" fill="none" xmlns="http://www.w3.org/2000/svg">
<g clip-path="url(#clip0_1346_404)">
<path d="M8.28269 10.6739C9.48933 9.60917 10.8446 8.72831 12.3044 8.04581C10.4423 6.56979 8.32878 5.4376 7.29956 4.92354C6.94652 4.74721 6.53183 4.75956 6.19019 4.95682C5.84847 5.15409 5.63027 5.50713 5.60636 5.90135C5.51761 7.37081 5.43972 10.4234 6.04878 13.0953C6.69206 12.2306 7.438 11.4192 8.28269 10.6739Z" fill="white"/>
<path d="M31.7173 10.6739C32.562 11.4192 33.3079 12.2307 33.9512 13.0953C34.5603 10.4234 34.4824 7.37078 34.3936 5.90133C34.3697 5.50718 34.1515 5.15414 33.8098 4.95679C33.4681 4.75961 33.0534 4.74718 32.7004 4.92351C31.6712 5.43765 29.5577 6.56984 27.6956 8.04578C29.1554 8.72836 30.5106 9.60914 31.7173 10.6739Z" fill="white"/>
<path d="M20 21.4844C18.3953 21.4844 18.0876 21.7578 18.0548 21.7927C18.0518 21.8033 18.0469 21.8302 18.0469 21.875C18.0469 22.535 18.9311 23.8281 20 23.8281C21.0689 23.8281 21.9531 22.535 21.9531 21.875C21.9531 21.8302 21.9482 21.8033 21.9452 21.7927C21.9124 21.7578 21.6047 21.4844 20 21.4844Z" fill="white"/>
<path d="M30.1666 12.4313C27.4438 10.0289 23.8333 8.70581 20 8.70581C16.1667 8.70581 12.5562 10.0289 9.83344 12.4314C7.06922 14.8703 5.54688 18.1252 5.54688 21.5964C5.54688 24.641 6.7182 27.5191 8.87125 29.8263C9.25086 29.3107 9.73195 28.8636 10.2991 28.5132C11.1045 28.0153 12.0272 27.7522 12.9671 27.7522C13.7492 27.7522 14.5351 27.9385 15.2398 28.2909L18.2095 29.7757H21.7904L24.7602 28.2908C25.465 27.9385 26.2509 27.7522 27.0329 27.7522C27.9729 27.7522 28.8955 28.0153 29.7009 28.5131C30.268 28.8635 30.749 29.3106 31.1287 29.8262C33.2818 27.519 34.4531 24.641 34.4531 21.5964C34.4531 18.1252 32.9308 14.8703 30.1666 12.4313ZM14.7227 18.0063C14.523 18.1395 14.2971 18.2032 14.0737 18.2032C13.6951 18.2032 13.3234 18.02 13.0976 17.6813C12.7386 17.1428 12.8841 16.4152 13.4227 16.0562L14.5945 15.275C14.9882 15.0125 15.501 15.0126 15.8946 15.275L17.0665 16.0562C17.605 16.4152 17.7505 17.1428 17.3915 17.6813C17.0324 18.2198 16.3048 18.3652 15.7664 18.0063L15.2446 17.6584L14.7227 18.0063ZM21.1719 25.9782V27.3437C21.1719 27.9909 20.6472 28.5156 20 28.5156C19.3528 28.5156 18.8281 27.9909 18.8281 27.3437V25.9782C17.0212 25.3789 15.7031 23.4885 15.7031 21.875C15.7031 20.7875 16.2883 19.9519 17.3507 19.522C18.0027 19.2582 18.8197 19.1406 20 19.1406C21.1803 19.1406 21.9973 19.2582 22.6493 19.522C23.7117 19.9519 24.2969 20.7875 24.2969 21.875C24.2969 23.4885 22.9788 25.3789 21.1719 25.9782ZM26.9024 17.6812C26.6766 18.0199 26.3049 18.2032 25.9262 18.2032C25.7029 18.2032 25.477 18.1394 25.2773 18.0062L24.7554 17.6583L24.2335 18.0062C23.695 18.3651 22.9674 18.2196 22.6084 17.6811C22.2495 17.1426 22.395 16.415 22.9335 16.056L24.1054 15.2748C24.499 15.0125 25.0119 15.0125 25.4055 15.2748L26.5773 16.056C27.1159 16.4152 27.2614 17.1428 26.9024 17.6812Z" fill="white"/>
<path d="M5.85938 35.3125H4.6875V34.1406C4.6875 33.4934 4.16281 32.9688 3.51562 32.9688C2.86844 32.9688 2.34375 33.4934 2.34375 34.1406V35.3125H1.17188C0.524687 35.3125 0 35.8372 0 36.4844C0 37.1316 0.524687 37.6562 1.17188 37.6562H2.34375V38.8281C2.34375 39.4753 2.86844 40 3.51562 40C4.16281 40 4.6875 39.4753 4.6875 38.8281V37.6562H5.85938C6.50656 37.6562 7.03125 37.1316 7.03125 36.4844C7.03125 35.8372 6.50656 35.3125 5.85938 35.3125Z" fill="white"/>
<path d="M15.9375 4.6875H17.1094V5.85938C17.1094 6.50656 17.6341 7.03125 18.2812 7.03125C18.9284 7.03125 19.4531 6.50656 19.4531 5.85938V4.6875H20.625C21.2722 4.6875 21.7969 4.16281 21.7969 3.51562C21.7969 2.86844 21.2722 2.34375 20.625 2.34375H19.4531V1.17188C19.4531 0.524687 18.9284 0 18.2812 0C17.6341 0 17.1094 0.524687 17.1094 1.17188V2.34375H15.9375C15.2903 2.34375 14.7656 2.86844 14.7656 3.51562C14.7656 4.16281 15.2903 4.6875 15.9375 4.6875Z" fill="white"/>
<path d="M38.8281 30.5469H37.6562V29.375C37.6562 28.7278 37.1316 28.2031 36.4844 28.2031C35.8372 28.2031 35.3125 28.7278 35.3125 29.375V30.5469H34.1406C33.4934 30.5469 32.9688 31.0716 32.9688 31.7188C32.9688 32.3659 33.4934 32.8906 34.1406 32.8906H35.3125V34.0625C35.3125 34.7097 35.8372 35.2344 36.4844 35.2344C37.1316 35.2344 37.6562 34.7097 37.6562 34.0625V32.8906H38.8281C39.4753 32.8906 40 32.3659 40 31.7188C40 31.0716 39.4753 30.5469 38.8281 30.5469Z" fill="white"/>
<path d="M1.17188 24.375C1.81908 24.375 2.34375 23.8503 2.34375 23.2031C2.34375 22.5559 1.81908 22.0312 1.17188 22.0312C0.524666 22.0312 0 22.5559 0 23.2031C0 23.8503 0.524666 24.375 1.17188 24.375Z" fill="white"/>
<path d="M28.5156 2.34375C29.1628 2.34375 29.6875 1.81908 29.6875 1.17188C29.6875 0.524666 29.1628 0 28.5156 0C27.8684 0 27.3438 0.524666 27.3438 1.17188C27.3438 1.81908 27.8684 2.34375 28.5156 2.34375Z" fill="white"/>
<path d="M18.4375 32.1195H21.5625V37.8649H18.4375V32.1195Z" fill="white"/>
<path d="M28.4687 30.5069C27.6567 30.0051 26.6622 29.9603 25.8084 30.3872L23.9062 31.3382V38.6461L25.8084 39.5971C26.1975 39.7917 26.6159 39.8884 27.0329 39.8884C27.5308 39.8884 28.0268 39.7506 28.4687 39.4775C29.2808 38.9756 29.7656 38.1061 29.7656 37.1515V32.8328C29.7656 31.8783 29.2808 31.0088 28.4687 30.5069Z" fill="white"/>
<path d="M11.5313 30.5068C10.7192 31.0087 10.2344 31.8782 10.2344 32.8329V37.1515C10.2344 38.1061 10.7192 38.9757 11.5313 39.4775C11.9732 39.7507 12.4691 39.8884 12.9671 39.8884C13.3841 39.8884 13.8025 39.7918 14.1916 39.5972L16.0938 38.6461V31.3382L14.1916 30.3871C13.3377 29.9602 12.3432 30.005 11.5313 30.5068Z" fill="white"/>
</g>
<defs>
<clipPath id="clip0_1346_404">
<rect width="40" height="40" fill="white"/>
</clipPath>
</defs>
</svg>
