<svg width="40" height="40" viewBox="0 0 40 40" fill="none" xmlns="http://www.w3.org/2000/svg">
<g clip-path="url(#clip0_1346_392)">
<path d="M39.6333 23.6999L36.3 20.3666C35.8116 19.8783 35.0199 19.8783 34.5316 20.3666C34.0433 20.8549 34.0433 21.6466 34.5316 22.1349L35.3149 22.9183L33.75 24.4833L31.3 22.0333C30.8116 21.5449 30.0199 21.5449 29.5316 22.0333C29.0433 22.5216 29.0433 23.3133 29.5316 23.8016L30.3149 24.5849L22.3766 32.5233C21.3749 33.525 21.2583 35.0783 22.0216 36.2116L20.3666 37.8666C19.8783 38.3549 19.8783 39.1466 20.3666 39.635C20.8549 40.1233 21.6466 40.1233 22.1349 39.635L23.7916 37.9783C24.2816 38.3083 24.8499 38.475 25.4183 38.475C26.1649 38.475 26.9116 38.1916 27.48 37.6216L35.4183 29.6833L36.2016 30.4666C36.69 30.955 37.4816 30.955 37.9699 30.4666C38.4583 29.9783 38.4583 29.1866 37.9699 28.6983L35.52 26.2483L37.0849 24.6833L37.8683 25.4666C38.3566 25.9549 39.1483 25.9549 39.6366 25.4666C40.1216 24.9783 40.1216 24.1883 39.6333 23.6999Z" fill="white"/>
<path d="M29 18.5833C27.0333 14.3167 23.05 11.7167 18.3333 11.7167C13.35 11.7167 8.98334 14.65 7.45001 19L5.18334 25.4833C4.73334 26.7667 5.11668 28.15 6.15001 29.0667C7.33334 30.1167 9.03334 30.35 10.4833 29.65C14.05 27.9 18.1167 27.4333 21.9667 28.2167L26.0167 24.1667C25.5667 22.6333 25.9667 20.9 27.1833 19.6833C27.7 19.1667 28.3167 18.7833 29 18.5833Z" fill="white"/>
<path d="M14.0983 9.30498C12.66 9.30498 11.0167 8.18331 9.94334 6.31998C9.31167 5.22665 8.97334 4.03831 8.99167 2.97165C9.01334 1.76665 9.50001 0.801647 10.33 0.323314C11.16 -0.156686 12.2383 -0.0950195 13.2917 0.489981C14.225 1.00831 15.085 1.89498 15.715 2.98831C16.3467 4.07998 16.685 5.26831 16.6667 6.33498C16.645 7.53831 16.1583 8.50498 15.3283 8.98331C14.9517 9.20165 14.535 9.30498 14.0983 9.30498Z" fill="white"/>
<path d="M22.5683 9.30505C22.1316 9.30505 21.715 9.20171 21.3383 8.98505C20.5083 8.50505 20.0216 7.53838 20 6.33505C19.9816 5.26838 20.32 4.08005 20.9516 2.98671C21.5816 1.89338 22.4433 1.00671 23.375 0.488379C24.43 -0.0949547 25.5083 -0.156621 26.3366 0.321712C27.1666 0.800045 27.6533 1.76671 27.675 2.97005C27.6933 4.03671 27.355 5.22505 26.7233 6.31838C25.65 8.18171 24.005 9.30505 22.5683 9.30505Z" fill="white"/>
<path d="M5.24163 14.7066C4.99663 14.7066 4.74163 14.68 4.4833 14.63C3.4883 14.43 2.4883 13.8683 1.66496 13.045C-0.153368 11.2283 -0.540035 8.76829 0.781632 7.44662C1.44663 6.78162 2.4633 6.52829 3.56163 6.74495C4.55663 6.94495 5.55663 7.50662 6.3783 8.32995C8.19663 10.1466 8.5833 12.6066 7.26163 13.9283C6.7533 14.4383 6.03996 14.7066 5.24163 14.7066Z" fill="white"/>
<path d="M31.425 14.7066C30.6267 14.7066 29.9134 14.4366 29.405 13.9266C28.0834 12.6066 28.47 10.1466 30.2884 8.32995C31.11 7.50662 32.1117 6.94328 33.105 6.74495C34.2067 6.52495 35.22 6.77995 35.885 7.44662C37.2067 8.76828 36.82 11.2283 35.0017 13.045C34.1784 13.8683 33.1767 14.4316 32.1834 14.63C31.925 14.6816 31.6717 14.7066 31.425 14.7066Z" fill="white"/>
</g>
<defs>
<clipPath id="clip0_1346_392">
<rect width="40" height="40" fill="white"/>
</clipPath>
</defs>
</svg>
