<svg width="120" height="120" viewBox="0 0 120 120" fill="none" xmlns="http://www.w3.org/2000/svg">
<path d="M54.4 60C54.4 56.1273 52.9455 53.4182 50.4909 52.5818C48.0364 51.7454 45.0364 53.2182 43.0909 56.2182C42.115 57.5929 41.4652 59.172 41.1911 60.8355C40.917 62.4989 41.0258 64.203 41.5091 65.8182C41.7255 66.7218 42.1578 67.5594 42.769 68.2592C43.3802 68.9591 44.152 69.5002 45.0182 69.8364C45.4773 69.9797 45.9554 70.0533 46.4364 70.0545C47.8097 70.0089 49.1308 69.5175 50.2 68.6545C51.515 67.6289 52.5774 66.3155 53.3055 64.8152C54.0336 63.3149 54.408 61.6676 54.4 60Z" fill="#FAE6D6"/>
<path d="M16.3636 67.7636C16.7329 67.7899 17.1035 67.7899 17.4727 67.7636C18.6609 67.7785 19.8197 67.3944 20.7636 66.6727C21.3534 66.1638 21.8297 65.5366 22.1617 64.8319C22.4937 64.1272 22.674 63.3606 22.6909 62.5818C22.5872 60.0868 21.7435 57.6791 20.267 55.6652C18.7906 53.6512 16.7482 52.1222 14.4 51.2727C13.5403 51.0109 12.6315 50.9518 11.7451 51.1C10.8587 51.2483 10.0187 51.5999 9.29092 52.1273C8.60981 52.6998 8.07243 53.424 7.72194 54.2419C7.37144 55.0597 7.21759 55.9483 7.27274 56.8364C7.41202 59.393 8.37159 61.8367 10.0091 63.805C11.6467 65.7734 13.875 67.1615 16.3636 67.7636Z" fill="#FAE6D6"/>
<path d="M103.164 48.3091C103.688 48.8655 104.327 49.3015 105.037 49.5871C105.746 49.8727 106.509 50.0012 107.273 49.9637H108.236C109.861 49.7466 111.415 49.1664 112.784 48.2661C114.153 47.3659 115.302 46.1688 116.145 44.7637C118.182 41.2728 118.182 38.1818 116.545 36.2546C114.909 34.3273 111.473 34.0182 108.364 35.5818C106.832 36.282 105.479 37.3195 104.405 38.6168C103.331 39.914 102.565 41.4374 102.164 43.0728C101.884 43.9601 101.828 44.9031 102.003 45.8171C102.178 46.7311 102.576 47.5874 103.164 48.3091Z" fill="#FAE6D6"/>
<path d="M2.27279 74.5455C2.30882 76.7712 3.02491 78.9327 4.32493 80.7397C5.62494 82.5468 7.44666 83.9128 9.54551 84.6546C10.2885 84.9118 11.0683 85.0469 11.8546 85.0546C12.9028 85.0743 13.9293 84.7555 14.7819 84.1455C15.4875 83.5612 16.04 82.8138 16.3916 81.9679C16.7433 81.122 16.8835 80.2032 16.8001 79.2909C16.598 76.9996 15.693 74.8267 14.209 73.0693C12.7249 71.3119 10.7342 70.0558 8.50915 69.4727C7.75017 69.2531 6.94926 69.2205 6.17496 69.3779C5.40067 69.5354 4.67603 69.878 4.06307 70.3766C3.45011 70.8752 2.96707 71.5149 2.65528 72.2409C2.3435 72.9669 2.21226 73.7577 2.27279 74.5455Z" fill="#FAE6D6"/>
<path d="M66.1636 61.9636C65.9698 62.8717 65.9601 63.8094 66.135 64.7213C66.3098 65.6332 66.6658 66.5008 67.1818 67.2727C67.6694 67.9987 68.2967 68.6202 69.0272 69.1009C69.7577 69.5817 70.5767 69.912 71.4363 70.0727C73.3424 70.3675 75.2739 70.465 77.2 70.3636C78.4909 70.3636 79.6909 70.3636 80.8363 70.3636C83.1756 70.5429 85.4941 70.9324 87.7636 71.5273C88.6802 71.8023 89.5739 72.1488 90.4363 72.5636C91.5212 73.0835 92.6537 73.4975 93.8181 73.8C94.4136 73.9416 95.0243 74.0088 95.6363 74C97.1625 74.0031 98.6509 73.526 99.8909 72.6363C100.759 71.9959 101.482 71.1786 102.012 70.2384C102.542 69.2982 102.866 68.2565 102.964 67.1818C103.177 64.745 102.999 62.2896 102.436 59.9091C101.255 53.8277 98.4608 48.1759 94.3454 43.5454C89.4545 38.4727 83.7091 38.0909 78.1636 42.5091C76.9009 43.4699 75.7485 44.5675 74.7272 45.7818C73.8181 46.9454 72.9091 48.1454 72 49.4182C69.7338 52.539 67.9785 56.0004 66.8 59.6727C66.5454 60.3636 66.3454 61.1636 66.1636 61.9636Z" fill="#FAE6D6"/>
<path d="M87.4728 30.9091C88.6487 28.7057 89.1402 26.2014 88.8843 23.717C88.6284 21.2326 87.6368 18.8811 86.0364 16.9636C85.4195 16.3104 84.6613 15.807 83.8199 15.4918C82.9785 15.1767 82.0761 15.0582 81.1819 15.1454C80.3054 15.2963 79.4761 15.6493 78.7598 16.1763C78.0434 16.7034 77.4596 17.39 77.0546 18.1818C76.1436 19.7878 75.6791 21.6084 75.7091 23.4545C75.6858 25.0906 76.0073 26.7133 76.6526 28.217C77.2979 29.7206 78.2526 31.0715 79.4546 32.1818C80.4626 33.0646 81.7513 33.5607 83.091 33.5818H83.7819C84.5534 33.4288 85.2827 33.1107 85.9198 32.6493C86.5569 32.188 87.0867 31.5944 87.4728 30.9091Z" fill="#FAE6D6"/>
<path d="M106.218 26.4909C106.218 26.0909 106.218 25.6909 106.218 25.2909C106.341 24.2904 106.199 23.2754 105.806 22.347C105.414 21.4186 104.785 20.6093 103.982 20C103.085 19.5365 102.081 19.3177 101.073 19.3656C100.064 19.4135 99.0856 19.7264 98.2364 20.2727C96.191 21.4397 94.5514 23.2042 93.5374 25.3296C92.5235 27.455 92.1837 29.8396 92.5637 32.1636C92.6901 33.1053 93.0533 33.9995 93.6193 34.7626C94.1853 35.5258 94.9356 36.1329 95.8 36.5272C96.3284 36.7292 96.8889 36.8339 97.4546 36.8363C98.7713 36.794 100.042 36.3428 101.091 35.5454L101.527 35.2182C104.177 33.0385 105.862 29.9034 106.218 26.4909Z" fill="#FAE6D6"/>
<path d="M18.6363 86.3273C18.2556 90.1631 18.4827 94.035 19.3091 97.8C19.5091 98.6 19.7091 99.4 19.9818 100.182C20.2739 101.049 20.7342 101.851 21.3363 102.54C21.9384 103.23 22.6706 103.794 23.4909 104.2C24.3945 104.629 25.3817 104.852 26.3818 104.855C27.1316 104.855 27.8759 104.726 28.5818 104.473C30.3795 103.771 32.0981 102.881 33.7091 101.818C34.8 101.164 35.8363 100.527 36.9272 100C39.0359 98.9743 41.2327 98.1407 43.4909 97.5091C44.4173 97.2858 45.3594 97.1338 46.3091 97.0546C47.5379 96.9523 48.7549 96.7393 49.9454 96.4182C50.9612 96.1181 51.8991 95.5997 52.6936 94.8994C53.4882 94.1991 54.1202 93.3336 54.5454 92.3636C54.9785 91.3646 55.1913 90.2839 55.1694 89.1952C55.1474 88.1065 54.8912 87.0354 54.4182 86.0546C53.3492 83.8168 51.9178 81.771 50.1818 80C46.0888 75.3517 40.8288 71.8806 34.9454 69.9455C28.1454 68.1273 23.0182 70.6364 20.4 77.2182C19.7922 78.6786 19.353 80.2036 19.0909 81.7636C18.9272 83.2364 18.7818 84.7273 18.6363 86.3273Z" fill="#FAE6D6"/>
<path d="M63.8363 30.9091C62.745 32.8402 62.2683 35.058 62.4697 37.2669C62.6711 39.4758 63.5411 41.5709 64.9636 43.2727C65.4853 43.922 66.1396 44.4525 66.8827 44.8287C67.6258 45.205 68.4406 45.4183 69.2727 45.4546H69.7454C70.6494 45.3068 71.5039 44.9417 72.2355 44.3906C72.9671 43.8396 73.5539 43.119 73.9454 42.2909C74.6913 40.8676 75.0665 39.2793 75.0363 37.6727C75.0698 36.1762 74.7948 34.6889 74.2287 33.3032C73.6625 31.9175 72.8172 30.6631 71.7454 29.6182C71.1972 29.0576 70.5226 28.6365 69.7782 28.3902C69.0338 28.1438 68.2412 28.0794 67.4668 28.2022C66.6924 28.3251 65.9586 28.6316 65.327 29.0962C64.6954 29.5609 64.1842 30.17 63.8363 30.8727V30.9091Z" fill="#FAE6D6"/>
<path d="M36.9818 59.2182C38.1762 56.011 38.052 52.4613 36.6364 49.3455C36.479 48.9791 36.303 48.6211 36.1091 48.2727C35.6973 47.3388 35.0471 46.5297 34.2237 45.9265C33.4003 45.3233 32.4328 44.9474 31.4182 44.8364C30.4078 44.875 29.427 45.1883 28.5813 45.7425C27.7356 46.2967 27.0569 47.0708 26.6182 47.9818C25.4373 50.0194 24.9088 52.3697 25.1039 54.7166C25.2989 57.0635 26.2081 59.2944 27.7091 61.1091C28.2316 61.7575 28.886 62.2873 29.629 62.6635C30.3719 63.0397 31.1863 63.2535 32.0182 63.2909H32.7091C33.6298 63.0993 34.4867 62.6767 35.1991 62.0629C35.9116 61.449 36.4562 60.6641 36.7818 59.7818C36.8545 59.5455 36.9273 59.4 36.9818 59.2182Z" fill="#FAE6D6"/>
</svg>
