<svg width="134" height="134" viewBox="0 0 134 134" fill="none" xmlns="http://www.w3.org/2000/svg">
<path d="M73.2533 67C73.2533 62.6755 74.8776 59.6503 77.6185 58.7164C80.3594 57.7824 83.7094 59.427 85.8818 62.777C86.9716 64.3121 87.6972 66.0754 88.0032 67.9329C88.3093 69.7905 88.1879 71.6934 87.6482 73.497C87.4065 74.506 86.9237 75.4413 86.2413 76.2228C85.5588 77.0043 84.697 77.6086 83.7297 77.9839C83.217 78.144 82.6831 78.2262 82.146 78.2276C80.6125 78.1766 79.1373 77.6279 77.9433 76.6642C76.4749 75.519 75.2886 74.0524 74.4755 72.377C73.6625 70.7016 73.2444 68.8622 73.2533 67Z" fill="#FAE6D6"/>
<path d="M115.727 75.6694C115.315 75.6987 114.901 75.6987 114.489 75.6694C113.162 75.686 111.868 75.2571 110.814 74.4512C110.155 73.8829 109.624 73.1826 109.253 72.3957C108.882 71.6087 108.681 70.7527 108.662 69.883C108.778 67.097 109.72 64.4083 111.368 62.1594C113.017 59.9106 115.298 58.2031 117.92 57.2546C118.88 56.9622 119.895 56.8962 120.885 57.0617C121.874 57.2273 122.812 57.6199 123.625 58.2088C124.386 58.8481 124.986 59.6569 125.377 60.5701C125.769 61.4833 125.94 62.4756 125.879 63.4673C125.723 66.3222 124.652 69.051 122.823 71.249C120.995 73.4469 118.506 74.9971 115.727 75.6694Z" fill="#FAE6D6"/>
<path d="M18.8006 53.9451C18.2147 54.5664 17.5012 55.0533 16.709 55.3722C15.9169 55.6912 15.065 55.8346 14.2121 55.7927H13.1361C11.3224 55.5503 9.58656 54.9024 8.05758 53.8971C6.5286 52.8919 5.24574 51.5551 4.30425 49.986C2.03031 46.0879 2.03031 42.6363 3.85758 40.4842C5.68485 38.3321 9.52213 37.9869 12.9939 39.733C14.7041 40.5148 16.2153 41.6734 17.4142 43.122C18.6132 44.5706 19.4689 46.2717 19.9173 48.0979C20.2299 49.0887 20.2916 50.1418 20.0967 51.1624C19.9017 52.183 19.4564 53.1392 18.8006 53.9451Z" fill="#FAE6D6"/>
<path d="M131.462 83.2424C131.422 85.7279 130.622 88.1415 129.171 90.1594C127.719 92.1772 125.685 93.7027 123.341 94.5309C122.511 94.8182 121.64 94.9691 120.762 94.9776C119.592 94.9996 118.446 94.6436 117.494 93.9624C116.706 93.31 116.089 92.4754 115.696 91.5308C115.303 90.5863 115.147 89.5602 115.24 88.5415C115.466 85.9829 116.476 83.5565 118.133 81.594C119.791 79.6316 122.014 78.2289 124.498 77.5779C125.346 77.3326 126.24 77.2963 127.105 77.472C127.969 77.6478 128.779 78.0304 129.463 78.5872C130.147 79.144 130.687 79.8583 131.035 80.669C131.383 81.4797 131.53 82.3627 131.462 83.2424Z" fill="#FAE6D6"/>
<path d="M60.1172 69.1927C60.3336 70.2067 60.3445 71.2538 60.1492 72.2721C59.9539 73.2904 59.5564 74.2592 58.9803 75.1212C58.4358 75.9318 57.7352 76.6259 56.9195 77.1627C56.1038 77.6995 55.1893 78.0684 54.2294 78.2479C52.1009 78.5771 49.9441 78.6859 47.7933 78.5727C46.3518 78.5727 45.0118 78.5727 43.7327 78.5727C41.1205 78.7729 38.5315 79.2078 35.9972 79.8721C34.9737 80.1792 33.9757 80.5661 33.0127 81.0294C31.8012 81.6099 30.5366 82.0723 29.2363 82.41C28.5714 82.5681 27.8894 82.6431 27.206 82.6333C25.5019 82.6368 23.8398 82.1041 22.4551 81.1106C21.4853 80.3954 20.6781 79.4828 20.0866 78.4329C19.4952 77.383 19.133 76.2197 19.0239 75.0197C18.7853 72.2985 18.9841 69.5567 19.6127 66.8985C20.9314 60.1076 24.052 53.7964 28.6475 48.6257C34.1091 42.9612 40.5248 42.5348 46.7172 47.4685C48.1272 48.5414 49.4141 49.767 50.5545 51.123C51.5697 52.4224 52.5848 53.7624 53.6 55.1836C56.1305 58.6685 58.0906 62.5338 59.4066 66.6345C59.6909 67.406 59.9142 68.2994 60.1172 69.1927Z" fill="#FAE6D6"/>
<path d="M36.3222 34.5151C35.009 32.0547 34.4602 29.2583 34.746 26.484C35.0317 23.7097 36.139 21.0839 37.9261 18.9427C38.615 18.2133 39.4616 17.6511 40.4012 17.2992C41.3408 16.9473 42.3484 16.815 43.347 16.9124C44.3257 17.0809 45.2517 17.4751 46.0517 18.0636C46.8517 18.6521 47.5036 19.4188 47.9558 20.303C48.973 22.0964 49.4918 24.1294 49.4582 26.1909C49.4843 28.0179 49.1253 29.8299 48.4047 31.509C47.6841 33.188 46.618 34.6966 45.2758 35.9364C44.1502 36.9221 42.7112 37.4761 41.2152 37.4997H40.4437C39.5821 37.3288 38.7677 36.9736 38.0563 36.4585C37.3449 35.9433 36.7533 35.2804 36.3222 34.5151Z" fill="#FAE6D6"/>
<path d="M15.3897 29.5815C15.3897 29.1349 15.3897 28.6882 15.3897 28.2415C15.253 27.1244 15.4117 25.9909 15.8499 24.9542C16.2881 23.9175 16.9904 23.0138 17.887 22.3333C18.8888 21.8158 20.0093 21.5715 21.1357 21.625C22.262 21.6784 23.3544 22.0278 24.3027 22.6379C26.5867 23.941 28.4176 25.9114 29.5499 28.2847C30.6821 30.6581 31.0615 33.3209 30.6373 35.9161C30.496 36.9676 30.0905 37.9661 29.4584 38.8183C28.8264 39.6705 27.9886 40.3484 27.0233 40.7888C26.4333 41.0143 25.8074 41.1312 25.1757 41.134C23.7054 41.0866 22.2862 40.5828 21.1151 39.6924L20.6279 39.327C17.669 36.8931 15.7872 33.3921 15.3897 29.5815Z" fill="#FAE6D6"/>
<path d="M113.189 96.3988C113.615 100.682 113.361 105.006 112.438 109.21C112.215 110.103 111.992 110.997 111.687 111.87C111.361 112.838 110.847 113.733 110.174 114.503C109.502 115.273 108.684 115.903 107.768 116.357C106.759 116.835 105.657 117.085 104.54 117.088C103.703 117.088 102.872 116.944 102.084 116.661C100.076 115.877 98.1571 114.884 96.3582 113.697C95.14 112.966 93.9827 112.255 92.7645 111.667C90.4099 110.521 87.9568 109.59 85.4351 108.885C84.4007 108.636 83.3486 108.466 82.2882 108.378C80.916 108.263 79.557 108.026 78.2276 107.667C77.0933 107.332 76.046 106.753 75.1587 105.971C74.2715 105.189 73.5658 104.223 73.0909 103.139C72.6073 102.024 72.3697 100.817 72.3942 99.6014C72.4187 98.3857 72.7048 97.1895 73.233 96.0943C74.4267 93.5954 76.0251 91.311 77.9636 89.3334C82.5342 84.1428 88.4078 80.2667 94.9776 78.1058C102.571 76.0755 108.296 78.8773 111.22 86.227C111.899 87.8578 112.389 89.5607 112.682 91.3028C112.865 92.9473 113.027 94.6121 113.189 96.3988Z" fill="#FAE6D6"/>
<path d="M62.7161 34.5151C63.9347 36.6715 64.467 39.1481 64.2421 41.6147C64.0172 44.0813 63.0458 46.4208 61.4573 48.3212C60.8747 49.0462 60.1441 49.6386 59.3143 50.0587C58.4845 50.4788 57.5747 50.7171 56.6455 50.7575H56.1176C55.1082 50.5926 54.1539 50.1849 53.337 49.5695C52.52 48.9541 51.8647 48.1495 51.4276 47.2248C50.5947 45.6355 50.1758 43.8619 50.2094 42.0678C50.1721 40.3967 50.4791 38.7358 51.1113 37.1885C51.7435 35.6412 52.6874 34.2405 53.8842 33.0736C54.4965 32.4476 55.2497 31.9774 56.081 31.7023C56.9122 31.4272 57.7973 31.3553 58.6621 31.4924C59.5268 31.6296 60.3462 31.9719 61.0515 32.4908C61.7568 33.0096 62.3276 33.6898 62.7161 34.4745V34.5151Z" fill="#FAE6D6"/>
<path d="M92.7036 66.127C91.3699 62.5456 91.5086 58.5818 93.0894 55.1024C93.2651 54.6934 93.4616 54.2936 93.6781 53.9045C94.138 52.8617 94.864 51.9581 95.7835 51.2846C96.7029 50.611 97.7833 50.1912 98.9163 50.0673C100.045 50.1104 101.14 50.4602 102.084 51.0791C103.029 51.6979 103.786 52.5624 104.276 53.5797C105.595 55.8549 106.185 58.4795 105.967 61.1002C105.75 63.7209 104.734 66.2121 103.058 68.2385C102.475 68.9625 101.744 69.5542 100.914 69.9742C100.085 70.3943 99.1753 70.6331 98.2463 70.6748H97.4748C96.4467 70.4609 95.4899 69.989 94.6943 69.3035C93.8987 68.6181 93.2905 67.7415 92.9269 66.7564C92.8457 66.4924 92.7645 66.33 92.7036 66.127Z" fill="#FAE6D6"/>
</svg>
