<svg width="178" height="178" viewBox="0 0 178 178" fill="none" xmlns="http://www.w3.org/2000/svg">
<path d="M80.6933 89C80.6933 83.2555 78.5357 79.237 74.8948 77.9964C71.2539 76.7558 66.8039 78.9403 63.9181 83.3903C62.4705 85.4294 61.5067 87.7718 61.1001 90.2393C60.6936 92.7068 60.8549 95.2345 61.5718 97.6303C61.8928 98.9706 62.5341 100.213 63.4406 101.251C64.3472 102.289 65.492 103.092 66.7769 103.591C67.458 103.803 68.1671 103.912 68.8806 103.914C70.9176 103.847 72.8772 103.118 74.4633 101.838C76.4139 100.316 77.9897 98.3681 79.0697 96.1426C80.1498 93.9171 80.7052 91.4737 80.6933 89Z" fill="#FAE6D6"/>
<path d="M24.2727 100.516C24.8204 100.555 25.3702 100.555 25.9179 100.516C27.6803 100.538 29.3992 99.9683 30.7994 98.8979C31.6742 98.1429 32.3807 97.2127 32.8731 96.1673C33.3656 95.122 33.6331 93.9849 33.6582 92.8297C33.5044 89.1288 32.2528 85.5573 30.0628 82.57C27.8727 79.5827 24.8432 77.3146 21.36 76.0545C20.0847 75.6661 18.7368 75.5785 17.4219 75.7984C16.1071 76.0183 14.861 76.5399 13.7815 77.3221C12.7712 78.1713 11.9741 79.2456 11.4542 80.4588C10.9343 81.6719 10.7061 82.99 10.7879 84.3073C10.9945 88.0996 12.4179 91.7244 14.8469 94.6441C17.2759 97.5638 20.5813 99.6229 24.2727 100.516Z" fill="#FAE6D6"/>
<path d="M153.026 71.6585C153.804 72.4837 154.752 73.1305 155.804 73.5542C156.857 73.9779 157.988 74.1684 159.121 74.1127H160.551C162.96 73.7907 165.266 72.9301 167.297 71.5947C169.328 70.2594 171.032 68.4837 172.282 66.3994C175.303 61.2212 175.303 56.6364 172.876 53.7776C170.449 50.9188 165.351 50.4603 160.739 52.7797C158.468 53.8183 156.46 55.3573 154.868 57.2815C153.275 59.2058 152.138 61.4654 151.543 63.8912C151.127 65.2075 151.046 66.6063 151.305 67.962C151.563 69.3177 152.155 70.5879 153.026 71.6585Z" fill="#FAE6D6"/>
<path d="M3.37117 110.576C3.42463 113.877 4.48683 117.084 6.41518 119.764C8.34354 122.444 11.0457 124.471 14.1591 125.571C15.2612 125.953 16.4179 126.153 17.5842 126.164C19.139 126.194 20.6617 125.721 21.9263 124.816C22.9729 123.949 23.7925 122.84 24.3142 121.586C24.8358 120.331 25.0437 118.968 24.92 117.615C24.6202 114.216 23.2778 110.993 21.0765 108.386C18.8752 105.779 15.9223 103.916 12.6218 103.051C11.496 102.725 10.3079 102.677 9.15941 102.911C8.01086 103.144 6.93599 103.652 6.02676 104.392C5.11754 105.132 4.40102 106.08 3.93854 107.157C3.47606 108.234 3.28139 109.407 3.37117 110.576Z" fill="#FAE6D6"/>
<path d="M98.1427 91.9127C97.8553 93.2597 97.8408 94.6506 98.1003 96.0033C98.3597 97.3559 98.8877 98.6428 99.653 99.7879C100.376 100.865 101.307 101.787 102.39 102.5C103.474 103.213 104.689 103.703 105.964 103.941C108.791 104.379 111.656 104.523 114.513 104.373C116.428 104.373 118.208 104.373 119.907 104.373C123.377 104.639 126.816 105.216 130.183 106.099C131.542 106.507 132.868 107.021 134.147 107.636C135.757 108.407 137.436 109.021 139.164 109.47C140.047 109.68 140.953 109.78 141.861 109.767C144.124 109.771 146.332 109.064 148.172 107.744C149.46 106.794 150.532 105.582 151.318 104.187C152.103 102.792 152.584 101.247 152.729 99.653C153.046 96.0384 152.782 92.3963 151.947 88.8652C150.196 79.8445 146.05 71.4609 139.946 64.5924C132.691 57.0679 124.168 56.5015 115.943 63.0552C114.07 64.4804 112.36 66.1085 110.845 67.9097C109.497 69.6358 108.148 71.4158 106.8 73.3036C103.439 77.9328 100.835 83.0673 99.0867 88.5146C98.7091 89.5394 98.4124 90.7261 98.1427 91.9127Z" fill="#FAE6D6"/>
<path d="M129.751 45.8485C131.495 42.5801 132.224 38.8654 131.845 35.1802C131.465 31.495 129.994 28.007 127.621 25.1627C126.705 24.1938 125.581 23.447 124.333 22.9796C123.085 22.5121 121.746 22.3364 120.42 22.4658C119.12 22.6896 117.889 23.2131 116.827 23.9949C115.764 24.7767 114.898 25.7952 114.298 26.9697C112.946 29.352 112.257 32.0524 112.302 34.7909C112.267 37.2178 112.744 39.6248 113.701 41.8552C114.658 44.0856 116.075 46.0895 117.858 47.7364C119.353 49.0458 121.264 49.7817 123.252 49.813H124.276C125.421 49.586 126.503 49.1142 127.448 48.4299C128.393 47.7456 129.178 46.865 129.751 45.8485Z" fill="#FAE6D6"/>
<path d="M157.557 39.2948C157.557 38.7015 157.557 38.1082 157.557 37.5148C157.739 36.0308 157.528 34.5252 156.946 33.1481C156.364 31.771 155.431 30.5706 154.24 29.6667C152.909 28.9792 151.42 28.6546 149.924 28.7257C148.428 28.7967 146.977 29.2608 145.717 30.0712C142.683 31.8022 140.251 34.4196 138.747 37.5723C137.243 40.7249 136.739 44.2621 137.303 47.7094C137.49 49.1062 138.029 50.4326 138.869 51.5646C139.708 52.6966 140.821 53.5972 142.103 54.1821C142.887 54.4817 143.719 54.637 144.558 54.6406C146.511 54.5777 148.396 53.9085 149.952 52.7258L150.599 52.2403C154.529 49.0072 157.029 44.3567 157.557 39.2948Z" fill="#FAE6D6"/>
<path d="M27.6439 128.052C27.0792 133.742 27.416 139.485 28.6418 145.07C28.9385 146.257 29.2351 147.443 29.6397 148.603C30.073 149.89 30.7557 151.079 31.6489 152.101C32.542 153.124 33.628 153.961 34.8448 154.563C36.1851 155.199 37.6495 155.531 39.133 155.534C40.2453 155.535 41.3493 155.343 42.3963 154.968C45.0629 153.927 47.6122 152.607 50.0018 151.03C51.62 150.059 53.1572 149.115 54.7754 148.333C57.9033 146.812 61.1618 145.575 64.5115 144.639C65.8856 144.307 67.2832 144.082 68.6918 143.964C70.5145 143.813 72.3198 143.497 74.0857 143.02C75.5924 142.575 76.9837 141.806 78.1622 140.767C79.3408 139.729 80.2783 138.445 80.9091 137.006C81.5515 135.524 81.8671 133.921 81.8346 132.306C81.802 130.691 81.4219 129.102 80.7203 127.648C79.1347 124.328 77.0114 121.294 74.4363 118.667C68.365 111.772 60.5628 106.623 51.8357 103.752C41.7491 101.055 34.1436 104.777 30.26 114.54C29.3584 116.707 28.7069 118.969 28.3182 121.283C28.0754 123.467 27.8597 125.679 27.6439 128.052Z" fill="#FAE6D6"/>
<path d="M94.6906 45.8485C93.0719 48.7129 92.3647 52.0027 92.6635 55.2792C92.9622 58.5558 94.2526 61.6635 96.3627 64.1879C97.1366 65.151 98.1071 65.9378 99.2093 66.4959C100.312 67.054 101.52 67.3705 102.755 67.4242H103.456C104.797 67.2051 106.064 66.6635 107.149 65.8461C108.235 65.0286 109.105 63.9598 109.686 62.7315C110.792 60.6203 111.349 58.2643 111.304 55.8812C111.354 53.6614 110.946 51.4551 110.106 49.3997C109.266 47.3443 108.012 45.4836 106.422 43.9336C105.609 43.1021 104.609 42.4775 103.504 42.1121C102.4 41.7467 101.225 41.651 100.076 41.8333C98.927 42.0155 97.8387 42.4702 96.9017 43.1594C95.9648 43.8486 95.2066 44.7522 94.6906 45.7945V45.8485Z" fill="#FAE6D6"/>
<path d="M54.8563 87.8403C56.628 83.083 56.4438 77.8176 54.3439 73.1957C54.1104 72.6524 53.8494 72.1213 53.5618 71.6045C52.951 70.2192 51.9865 69.019 50.7652 68.1243C49.5438 67.2296 48.1086 66.6719 46.6036 66.5073C45.1049 66.5646 43.6501 67.0292 42.3956 67.8513C41.1411 68.6734 40.1344 69.8217 39.4836 71.173C37.732 74.1954 36.9481 77.6817 37.2374 81.163C37.5267 84.6442 38.8753 87.9534 41.1018 90.6451C41.8769 91.6069 42.8476 92.3929 43.9496 92.9508C45.0516 93.5088 46.2597 93.8261 47.4936 93.8815H48.5185C49.8842 93.5973 51.1552 92.9705 52.212 92.0599C53.2688 91.1494 54.0767 89.985 54.5597 88.6764C54.6676 88.3258 54.7754 88.11 54.8563 87.8403Z" fill="#FAE6D6"/>
</svg>
