<svg width="100" height="100" viewBox="0 0 100 100" fill="none" xmlns="http://www.w3.org/2000/svg">
<path d="M54.6667 50C54.6667 46.7727 55.8788 44.5152 57.9242 43.8182C59.9697 43.1212 62.4697 44.3485 64.0909 46.8485C64.9042 47.9941 65.4457 49.31 65.6741 50.6962C65.9025 52.0825 65.8119 53.5025 65.4091 54.8485C65.2287 55.6015 64.8685 56.2995 64.3592 56.8827C63.8499 57.4659 63.2067 57.9169 62.4849 58.197C62.1022 58.3164 61.7039 58.3777 61.303 58.3788C60.1586 58.3408 59.0577 57.9312 58.1667 57.2121C57.0708 56.3575 56.1855 55.2629 55.5788 54.0127C54.972 52.7624 54.66 51.3897 54.6667 50Z" fill="#FAE6D6"/>
<path d="M86.3636 56.4697C86.0559 56.4916 85.7471 56.4916 85.4394 56.4697C84.4493 56.4821 83.4836 56.162 82.697 55.5606C82.2055 55.1365 81.8086 54.6139 81.532 54.0266C81.2553 53.4393 81.105 52.8005 81.0909 52.1515C81.1773 50.0723 81.8804 48.0659 83.1108 46.3876C84.3412 44.7094 86.0431 43.4352 88 42.7273C88.7165 42.5091 89.4737 42.4598 90.2124 42.5834C90.9511 42.7069 91.6511 42.9999 92.2576 43.4394C92.8252 43.9165 93.273 44.52 93.5651 45.2015C93.8571 45.8831 93.9854 46.6236 93.9394 47.3636C93.8233 49.4942 93.0237 51.5306 91.6591 53.1709C90.2944 54.8111 88.4375 55.9679 86.3636 56.4697Z" fill="#FAE6D6"/>
<path d="M14.0303 40.2576C13.5931 40.7212 13.0606 41.0846 12.4694 41.3226C11.8783 41.5606 11.2426 41.6677 10.6061 41.6364H9.80303C8.44951 41.4555 7.15414 40.972 6.01311 40.2218C4.87209 39.4716 3.91472 38.474 3.21212 37.303C1.51515 34.3939 1.51515 31.8182 2.87878 30.2121C4.24242 28.6061 7.10606 28.3485 9.69697 29.6515C10.9732 30.235 12.1009 31.0996 12.9957 32.1806C13.8904 33.2617 14.529 34.5311 14.8636 35.8939C15.0969 36.6334 15.1429 37.4193 14.9975 38.1809C14.852 38.9425 14.5197 39.6561 14.0303 40.2576Z" fill="#FAE6D6"/>
<path d="M98.1061 62.1212C98.076 63.976 97.4793 65.7773 96.396 67.2831C95.3126 68.789 93.7945 69.9274 92.0455 70.5455C91.4263 70.7599 90.7764 70.8724 90.1212 70.8788C89.2478 70.8953 88.3923 70.6296 87.6818 70.1212C87.0938 69.6343 86.6334 69.0115 86.3404 68.3066C86.0473 67.6017 85.9305 66.836 86 66.0758C86.1684 64.1663 86.9226 62.3556 88.1593 60.8911C89.396 59.4265 91.0549 58.3798 92.9091 57.8939C93.5416 57.7109 94.209 57.6838 94.8543 57.8149C95.4995 57.9461 96.1034 58.2317 96.6142 58.6472C97.125 59.0627 97.5275 59.5957 97.7873 60.2007C98.0471 60.8057 98.1565 61.4647 98.1061 62.1212Z" fill="#FAE6D6"/>
<path d="M44.8636 51.6364C45.0251 52.3931 45.0332 53.1745 44.8875 53.9344C44.7418 54.6943 44.4451 55.4173 44.0152 56.0606C43.6088 56.6656 43.086 57.1835 42.4773 57.5841C41.8685 57.9847 41.186 58.26 40.4697 58.3939C38.8813 58.6396 37.2718 58.7209 35.6667 58.6364C34.5909 58.6364 33.5909 58.6364 32.6364 58.6364C30.6869 58.7858 28.7549 59.1103 26.8636 59.6061C26.0998 59.8352 25.3551 60.124 24.6364 60.4697C23.7323 60.9029 22.7885 61.248 21.8182 61.5C21.322 61.618 20.813 61.674 20.303 61.6667C19.0313 61.6693 17.7909 61.2717 16.7576 60.5303C16.0338 59.9966 15.4314 59.3155 14.9901 58.532C14.5487 57.7486 14.2784 56.8804 14.197 55.9848C14.0189 53.9541 14.1673 51.908 14.6364 49.9242C15.6205 44.8565 17.9493 40.1466 21.3788 36.2879C25.4545 32.0606 30.2424 31.7424 34.8636 35.4242C35.9159 36.2249 36.8762 37.1396 37.7273 38.1515C38.4848 39.1212 39.2424 40.1212 40 41.1818C41.8885 43.7825 43.3512 46.667 44.3333 49.7273C44.5455 50.303 44.7121 50.9697 44.8636 51.6364Z" fill="#FAE6D6"/>
<path d="M27.1061 25.7576C26.1261 23.9214 25.7166 21.8345 25.9298 19.7642C26.1431 17.6938 26.9694 15.7342 28.303 14.1364C28.8171 13.592 29.449 13.1725 30.1501 12.9099C30.8513 12.6473 31.6033 12.5485 32.3485 12.6212C33.0789 12.747 33.7699 13.0411 34.3669 13.4803C34.9639 13.9195 35.4504 14.4917 35.7879 15.1515C36.547 16.4899 36.9342 18.007 36.9091 19.5454C36.9285 20.9089 36.6606 22.2611 36.1229 23.5142C35.5851 24.7672 34.7895 25.893 33.7879 26.8182C32.9479 27.5538 31.874 27.9673 30.7576 27.9848H30.1818C29.5389 27.8573 28.9311 27.5922 28.4002 27.2078C27.8693 26.8234 27.4278 26.3286 27.1061 25.7576Z" fill="#FAE6D6"/>
<path d="M11.4848 22.0758C11.4848 21.7424 11.4848 21.4091 11.4848 21.0758C11.3828 20.242 11.5013 19.3962 11.8283 18.6225C12.1553 17.8489 12.6794 17.1745 13.3485 16.6667C14.0961 16.2805 14.9324 16.0981 15.7729 16.138C16.6135 16.1779 17.4287 16.4386 18.1364 16.8939C19.8408 17.8664 21.2072 19.3369 22.0521 21.108C22.8971 22.8792 23.1803 24.8664 22.8636 26.803C22.7583 27.5878 22.4556 28.3329 21.9839 28.9689C21.5123 29.6048 20.887 30.1108 20.1667 30.4394C19.7264 30.6077 19.2592 30.6949 18.7879 30.697C17.6906 30.6616 16.6315 30.2857 15.7576 29.6212L15.3939 29.3485C13.1858 27.5321 11.7815 24.9195 11.4848 22.0758Z" fill="#FAE6D6"/>
<path d="M84.4697 71.9394C84.787 75.1359 84.5978 78.3625 83.9091 81.5C83.7424 82.1667 83.5758 82.8333 83.3485 83.4849C83.1051 84.2078 82.7215 84.8757 82.2197 85.4502C81.718 86.0248 81.1078 86.4948 80.4242 86.8333C79.6713 87.1906 78.8486 87.3768 78.0152 87.3788C77.3903 87.3791 76.77 87.2715 76.1818 87.0606C74.6837 86.4756 73.2516 85.7341 71.9091 84.8485C71 84.303 70.1364 83.7727 69.2273 83.3333C67.4701 82.4786 65.6394 81.7839 63.7576 81.2576C62.9856 81.0715 62.2005 80.9448 61.4091 80.8788C60.3851 80.7936 59.3709 80.6161 58.3788 80.3485C57.5324 80.0984 56.7507 79.6665 56.0886 79.0828C55.4265 78.4992 54.8998 77.7781 54.5455 76.9697C54.1846 76.1371 54.0072 75.2366 54.0255 74.3294C54.0438 73.4221 54.2573 72.5295 54.6515 71.7121C55.5423 69.8473 56.7351 68.1425 58.1818 66.6667C61.5927 62.7931 65.976 59.9006 70.8788 58.2879C76.5455 56.7727 80.8182 58.8636 83 64.3485C83.5065 65.5655 83.8725 66.8364 84.0909 68.1364C84.2273 69.3636 84.3485 70.6061 84.4697 71.9394Z" fill="#FAE6D6"/>
<path d="M46.803 25.7576C47.7124 27.3668 48.1097 29.215 47.9419 31.0558C47.774 32.8965 47.0491 34.6424 45.8636 36.0606C45.4289 36.6017 44.8837 37.0437 44.2644 37.3573C43.6452 37.6708 42.9662 37.8486 42.2727 37.8788H41.8788C41.1255 37.7557 40.4134 37.4514 39.8037 36.9922C39.194 36.5329 38.705 35.9325 38.3788 35.2424C37.7573 34.0563 37.4446 32.7328 37.4697 31.3939C37.4419 30.1468 37.671 28.9074 38.1428 27.7526C38.6146 26.5979 39.319 25.5526 40.2121 24.6818C40.669 24.2147 41.2311 23.8638 41.8515 23.6585C42.4718 23.4532 43.1323 23.3995 43.7777 23.5018C44.423 23.6042 45.0345 23.8597 45.5608 24.2469C46.0872 24.634 46.5131 25.1417 46.803 25.7273V25.7576Z" fill="#FAE6D6"/>
<path d="M69.1818 49.3485C68.1865 46.6758 68.29 43.7178 69.4697 41.1212C69.6009 40.816 69.7475 40.5176 69.9091 40.2273C70.2522 39.449 70.7941 38.7747 71.4802 38.2721C72.1664 37.7694 72.9727 37.4561 73.8182 37.3636C74.6602 37.3958 75.4775 37.6569 76.1822 38.1187C76.887 38.5805 77.4526 39.2257 77.8182 39.9848C78.8022 41.6828 79.2426 43.6414 79.0801 45.5972C78.9176 47.5529 78.1599 49.412 76.9091 50.9242C76.4737 51.4646 75.9283 51.9061 75.3092 52.2196C74.6901 52.533 74.0114 52.7113 73.3182 52.7424H72.7424C71.9752 52.5828 71.2611 52.2306 70.6674 51.7191C70.0737 51.2075 69.6198 50.5534 69.3485 49.8182C69.2879 49.6212 69.2273 49.5 69.1818 49.3485Z" fill="#FAE6D6"/>
</svg>
