<svg width="40" height="40" viewBox="0 0 40 40" fill="none" xmlns="http://www.w3.org/2000/svg">
<g clip-path="url(#clip0_1346_319)">
<path d="M3.71912 35.8119C4.03303 36.1548 4.51991 36.2797 4.96023 36.1303L9.9771 34.4268L12.0745 39.292C12.259 39.7201 12.6797 39.9981 13.1458 40H13.1507C13.6149 40 14.0355 39.7259 14.2229 39.3008L18.1325 30.4328C18.7447 30.5079 19.3678 30.5474 20 30.5474C20.6322 30.5474 21.2552 30.508 21.8674 30.4328L25.777 39.3008C25.9643 39.7259 26.3851 40.0001 26.8494 40H26.8542C27.3204 39.9981 27.741 39.7201 27.9255 39.292L30.023 34.4268L35.0399 36.1303C35.4798 36.2797 35.9671 36.1549 36.281 35.8119C36.595 35.469 36.6765 34.9729 36.4888 34.5475L32.0883 24.573C34.0603 22.0048 35.2346 18.7935 35.2346 15.3127C35.2346 6.86923 28.4004 0 20 0C11.5997 0 4.76546 6.86923 4.76546 15.3127C4.76546 18.7935 5.93977 22.0048 7.91183 24.573L3.5113 34.5475C3.32364 34.9729 3.40513 35.469 3.71912 35.8119ZM33.2678 33.0533L29.752 31.8595C29.1734 31.6629 28.5409 31.9442 28.299 32.5053L26.8373 35.8958L24.2174 29.953C26.5408 29.2827 28.6373 28.0727 30.3628 26.4687L33.2678 33.0533ZM7.10924 15.3127C7.10924 8.1616 12.8921 2.34378 20 2.34378C27.108 2.34378 32.8909 8.1616 32.8909 15.3127C32.8909 22.4207 27.108 28.2035 20 28.2035C12.8921 28.2035 7.10924 22.4207 7.10924 15.3127ZM9.63717 26.4687C11.3628 28.0727 13.4593 29.2827 15.7826 29.953L13.1627 35.8957L11.7011 32.5052C11.4591 31.944 10.8267 31.6629 10.2482 31.8594L6.73229 33.0533L9.63717 26.4687Z" fill="white"/>
<path d="M15.3973 16.8083L14.712 20.8032C14.6366 21.2428 14.8173 21.6872 15.1782 21.9494C15.5384 22.2111 16.0169 22.2465 16.4123 22.0386L20 20.1525L23.5875 22.0386C23.9824 22.2462 24.461 22.2115 24.8217 21.9494C25.1825 21.6872 25.3633 21.2429 25.2879 20.8032L24.6028 16.8083L27.5052 13.9792C27.8245 13.6678 27.9395 13.2021 27.8016 12.7779C27.6637 12.3537 27.2971 12.0445 26.8557 11.9803L22.8446 11.3975L21.0508 7.76291C20.8534 7.3629 20.446 7.10962 20 7.10962C19.5539 7.10962 19.1465 7.36283 18.9491 7.76291L17.1553 11.3975L13.1443 11.9803C12.7028 12.0445 12.336 12.3537 12.1982 12.7779C12.0603 13.2021 12.1753 13.6678 12.4947 13.9792L15.3973 16.8083ZM18.1021 13.6282C18.4838 13.5728 18.8137 13.3331 18.9844 12.9871L20 10.9294L21.0155 12.9871C21.1862 13.333 21.5162 13.5728 21.8979 13.6282L24.1688 13.9582L22.5256 15.56C22.2494 15.8292 22.1234 16.2171 22.1886 16.5972L22.5765 18.859L20.5453 17.7912C20.204 17.6117 19.7961 17.6116 19.4547 17.7912L17.4235 18.859L17.8113 16.5972C17.8765 16.2171 17.7505 15.8292 17.4743 15.56L15.831 13.9582L18.1021 13.6282Z" fill="white"/>
</g>
<defs>
<clipPath id="clip0_1346_319">
<rect width="40" height="40" fill="white"/>
</clipPath>
</defs>
</svg>
