<svg width="40" height="40" viewBox="0 0 40 40" fill="none" xmlns="http://www.w3.org/2000/svg">
<g clip-path="url(#clip0_1346_302)">
<path d="M20.7812 31.7188C20.7812 32.1503 20.4315 32.5 20 32.5C19.5685 32.5 19.2188 32.1503 19.2188 31.7188C19.2188 31.2872 19.5685 30.9375 20 30.9375C20.4315 30.9375 20.7812 31.2872 20.7812 31.7188Z" fill="white"/>
<path d="M37.4219 24.6875C37.4219 22.1027 35.3192 20 32.7344 20C30.1495 20 28.0469 22.1027 28.0469 24.6875C28.0469 27.2723 30.1495 29.375 32.7344 29.375C35.3192 29.375 37.4219 27.2723 37.4219 24.6875ZM32.7344 27.8125C31.0114 27.8125 29.6094 26.4105 29.6094 24.6875C29.6094 22.9645 31.0114 21.5625 32.7344 21.5625C34.4574 21.5625 35.8594 22.9645 35.8594 24.6875C35.8594 26.4105 34.4574 27.8125 32.7344 27.8125Z" fill="white"/>
<path d="M32.7344 29.375C30.7657 29.375 28.8025 30.1923 27.4652 31.5173C25.705 29.2041 22.9907 27.8125 20 27.8125C17.1359 27.8125 14.3607 29.1193 12.5351 31.5173C11.1975 30.1926 9.23462 29.375 7.26562 29.375C3.32733 29.375 0 32.5949 0 36.4062V37.9688C0 38.4003 0.349731 38.75 0.78125 38.75H39.2188C39.6503 38.75 40 38.4003 40 37.9688V36.4062C40 32.5949 36.6727 29.375 32.7344 29.375ZM1.5625 36.4062C1.5625 33.4418 4.17419 30.9375 7.26562 30.9375C8.95721 30.9375 10.6348 31.687 11.6733 32.8784C10.9866 34.2047 10.625 35.683 10.625 37.1875H1.5625V36.4062ZM20 29.375C24.3472 29.375 27.8125 32.9022 27.8125 37.1875H12.1875C12.1875 32.8452 15.7236 29.375 20 29.375ZM38.4375 37.1875H29.375C29.375 35.683 29.0134 34.2047 28.3267 32.8784C29.3652 31.687 31.0428 30.9375 32.7344 30.9375C35.8258 30.9375 38.4375 33.4418 38.4375 36.4062V37.1875Z" fill="white"/>
<path d="M11.9531 24.6875C11.9531 22.1027 9.85046 20 7.26562 20C4.68079 20 2.57812 22.1027 2.57812 24.6875C2.57812 27.2723 4.68079 29.375 7.26562 29.375C9.85046 29.375 11.9531 27.2723 11.9531 24.6875ZM7.26562 27.8125C5.5426 27.8125 4.14062 26.4105 4.14062 24.6875C4.14062 22.9645 5.5426 21.5625 7.26562 21.5625C8.98865 21.5625 10.3906 22.9645 10.3906 24.6875C10.3906 26.4105 8.98865 27.8125 7.26562 27.8125Z" fill="white"/>
<path d="M26.25 21.5625C26.25 18.1161 23.4464 15.3125 20 15.3125C16.5536 15.3125 13.75 18.1161 13.75 21.5625C13.75 25.0089 16.5536 27.8125 20 27.8125C23.4464 27.8125 26.25 25.0089 26.25 21.5625ZM20 26.25C17.4152 26.25 15.3125 24.1473 15.3125 21.5625C15.3125 18.9777 17.4152 16.875 20 16.875C22.5848 16.875 24.6875 18.9777 24.6875 21.5625C24.6875 24.1473 22.5848 26.25 20 26.25Z" fill="white"/>
<path d="M26.1828 5.79376C26.091 5.51086 25.8465 5.30487 25.552 5.26215L22.1823 4.77295L20.6735 1.68823C20.5426 1.41998 20.2704 1.25 19.9719 1.25C19.6734 1.25 19.4012 1.41998 19.27 1.68793L17.7615 4.77295L14.3918 5.26184C14.0973 5.30457 13.8528 5.51086 13.761 5.79376C13.6691 6.07666 13.7457 6.38702 13.9587 6.59454L16.3989 8.97278L15.823 12.3312C15.7727 12.6242 15.8932 12.9205 16.134 13.0951C16.3733 13.269 16.6919 13.2938 16.9568 13.1546L19.9719 11.5692L22.9883 13.1546C23.2513 13.2932 23.5702 13.27 23.811 13.0951C24.0515 12.9202 24.172 12.6242 24.1217 12.3309L23.5452 8.97278L25.9851 6.59454C26.1981 6.38702 26.2747 6.07666 26.1828 5.79376ZM22.16 8.14056C21.976 8.32001 21.8918 8.5788 21.9354 8.83209L22.3135 11.0352L20.3354 9.99512C20.1077 9.87549 19.8358 9.87549 19.6081 9.99512L17.6306 11.0352L18.0084 8.83209C18.0517 8.57849 17.9675 8.32001 17.7835 8.14056L16.1831 6.58081L18.3941 6.25977C18.6499 6.22284 18.8705 6.06171 18.9837 5.82977L19.9719 3.80951L20.9598 5.82977C21.0733 6.06201 21.2939 6.22284 21.5494 6.25977L23.7607 6.58081L22.16 8.14056Z" fill="white"/>
<path d="M37.8601 11.6492C37.7682 11.3663 37.5238 11.1603 37.2293 11.1176L34.9463 10.7858L33.9255 8.71674C33.7939 8.45001 33.5226 8.28125 33.2251 8.28125C33.2251 8.28125 33.2251 8.28125 33.2248 8.28125C32.9275 8.28125 32.6559 8.45001 32.5244 8.71674L31.503 10.7858L29.2196 11.1176C28.9255 11.1603 28.681 11.3663 28.5892 11.6492C28.497 11.9321 28.5736 12.2424 28.7866 12.45L30.4385 14.061L30.0485 16.3345C29.9985 16.6275 30.1187 16.9235 30.3595 17.0984C30.6 17.2733 30.9189 17.2964 31.1819 17.1582L33.2248 16.0849L35.267 17.1582C35.5301 17.2964 35.8493 17.2733 36.0898 17.0984C36.3302 16.9238 36.4505 16.6275 36.4004 16.3345L36.0104 14.061L37.6626 12.45C37.8757 12.2424 37.9519 11.9321 37.8601 11.6492ZM34.6258 13.2291C34.4415 13.4085 34.3576 13.667 34.4012 13.9203L34.5929 15.0385L33.5885 14.5108C33.3609 14.3912 33.089 14.3912 32.8616 14.5108L31.8564 15.0388L32.0483 13.9203C32.0917 13.667 32.0077 13.4085 31.8237 13.2291L31.0107 12.4362L32.1341 12.2733C32.3886 12.2363 32.6086 12.0764 32.7225 11.846L33.2248 10.8282L33.7268 11.8457C33.8406 12.0764 34.0607 12.2363 34.3152 12.2733L35.4385 12.4362L34.6258 13.2291Z" fill="white"/>
<path d="M11.2976 11.6492C11.2057 11.3663 10.9613 11.1603 10.6668 11.1176L8.38377 10.7858L7.36296 8.71674C7.23143 8.45001 6.96013 8.28125 6.66258 8.28125C6.36503 8.28125 6.09343 8.45001 5.9619 8.71674L4.94047 10.7858L2.65715 11.1176C2.36296 11.1603 2.11851 11.3663 2.02665 11.6492C1.93449 11.9321 2.01109 12.2424 2.2241 12.45L3.87602 14.061L3.48631 16.3345C3.43596 16.6275 3.5565 16.9235 3.79698 17.0984C4.03746 17.2733 4.35637 17.2964 4.61973 17.1582L6.66227 16.0849L8.70451 17.1582C8.9694 17.2974 9.28801 17.2723 9.52726 17.0984C9.76774 16.9238 9.88829 16.6275 9.83793 16.3345L9.44792 14.061L11.1001 12.45C11.3132 12.2424 11.3894 11.9321 11.2976 11.6492ZM8.06303 13.2291C7.87901 13.4085 7.79509 13.667 7.83842 13.9203L8.03038 15.0385L7.02574 14.5108C6.79838 14.3912 6.52647 14.3912 6.29912 14.5108L5.29356 15.0388L5.48552 13.9203C5.52916 13.667 5.44493 13.4085 5.26091 13.2291L4.44792 12.4362L5.57158 12.2733C5.82579 12.2363 6.04582 12.0764 6.15965 11.846L6.66197 10.8282L7.16398 11.8457C7.27781 12.0764 7.49785 12.2363 7.75236 12.2733L8.87571 12.4362L8.06303 13.2291Z" fill="white"/>
<path d="M23.4235 31.9605C23.0628 31.7234 22.5785 31.8238 22.3416 32.1845C22.1045 32.5449 22.2049 33.0293 22.5656 33.2664C23.288 33.7409 23.8654 34.4026 24.2353 35.1795C24.4202 35.5686 24.8859 35.735 25.2762 35.5491C25.6659 35.3639 25.8313 34.8975 25.6461 34.5081C25.1535 33.473 24.3848 32.5919 23.4235 31.9605Z" fill="white"/>
</g>
<defs>
<clipPath id="clip0_1346_302">
<rect width="40" height="40" fill="white"/>
</clipPath>
</defs>
</svg>
