<svg width="40" height="40" viewBox="0 0 40 40" fill="none" xmlns="http://www.w3.org/2000/svg">
<g clip-path="url(#clip0_1346_288)">
<path d="M29.4185 25.2546H31.7621V27.5983H29.4185V25.2546Z" fill="white"/>
<path d="M25.571 27.1394H27.9147V29.483H25.571V27.1394Z" fill="white"/>
<path d="M33.266 27.1394H35.6096V29.483H33.266V27.1394Z" fill="white"/>
<path d="M30.5952 28.8677C28.6487 28.8677 27.0651 30.4513 27.0651 32.3978C27.0651 34.3444 28.6487 35.928 30.5952 35.928C32.5418 35.928 34.1254 34.3444 34.1254 32.3978C34.1254 30.4513 32.5417 28.8677 30.5952 28.8677ZM30.5952 33.5843C29.9409 33.5843 29.4087 33.052 29.4087 32.3977C29.4087 31.7435 29.9409 31.2112 30.5952 31.2112C31.2495 31.2112 31.7817 31.7435 31.7817 32.3977C31.7817 33.052 31.2494 33.5843 30.5952 33.5843Z" fill="white"/>
<path d="M30.5903 21.1826C28.602 21.1826 26.7561 21.8031 25.2351 22.8598L20.6301 21.7122L20.2025 19.6419C21.6738 18.4304 22.623 16.6067 22.6553 14.5639C24.0253 14.0801 25.0096 12.7721 25.0096 11.2386C25.0096 10.0933 24.46 9.07393 23.6109 8.42958C23.7196 7.9707 23.8065 7.50283 23.8692 7.02973C24.4328 3.47239 21.3312 -0.0925185 17.6705 0.00208642H9.02774C7.16338 2.50931 6.74347 5.69229 8.07747 8.58411C7.33837 9.23048 6.87011 10.18 6.87011 11.2385C6.87011 12.7714 7.85389 14.0792 9.22336 14.5634C9.25562 16.6066 10.2053 18.4308 11.6771 19.6425L11.2497 21.7122L5.91297 23.0422C3.88095 23.5486 2.32821 25.1313 1.86073 27.1726L0.000976562 35.2932H22.4432C24.072 38.1047 27.1139 40.0001 30.5904 40.0001C35.7784 40.0001 39.9992 35.7793 39.9992 30.5914C39.9992 25.4034 35.7784 21.1826 30.5903 21.1826ZM21.4783 28.2428H8.02396V24.9314L11.7296 24.0079C12.7393 25.2887 14.2564 26.0307 15.9384 26.0307C17.6205 26.0307 19.138 25.2884 20.1476 24.0073L23.2044 24.7691C22.4056 25.7804 21.8094 26.9589 21.4783 28.2428ZM10.3242 2.34557H17.6706C19.8822 2.2876 21.8979 4.43953 21.5459 6.72185C21.5015 7.05652 21.443 7.38768 21.3713 7.71337H18.1047C15.8002 7.71821 14.5232 6.32179 13.3804 4.84912L11.3606 7.26097C11.1544 7.50947 10.7114 7.7461 10.2575 7.71688C9.40358 5.89775 9.4253 4.0319 10.3242 2.34557ZM10.3949 12.4201C9.74365 12.4198 9.21383 11.8897 9.21383 11.2347C9.21383 10.5853 9.74216 10.057 10.3915 10.057C11.4621 10.057 12.4702 9.58633 13.1575 8.76558L13.4629 8.40083C14.7612 9.46508 16.3935 10.0569 18.1047 10.0569H21.485C22.1362 10.0572 22.6661 10.5873 22.6661 11.2385C22.6661 11.89 22.136 12.4201 21.4845 12.4201H20.3127V14.4559C20.3127 16.8673 18.3509 18.8291 15.9395 18.8291C13.5282 18.8291 11.5664 16.8673 11.5664 14.4559V12.4206L10.3949 12.4201ZM15.9394 21.1728C16.6784 21.1728 17.3891 21.051 18.0547 20.8295L18.3886 22.4462C17.8203 23.2297 16.9303 23.6871 15.9384 23.6871C14.9479 23.6871 14.0588 23.2309 13.4905 22.4494L13.825 20.8298C14.4903 21.0511 15.2007 21.1728 15.9394 21.1728ZM4.14524 27.6958C4.34905 26.8057 4.91153 26.0675 5.68032 25.6345V32.9496H2.94201L4.14524 27.6958ZM8.02396 32.9496V30.5864H21.1817C21.1817 30.5881 21.1816 30.5897 21.1816 30.5913C21.1816 31.4054 21.2857 32.1957 21.481 32.9496H8.02396ZM30.5903 37.6564C26.6946 37.6564 23.5252 34.487 23.5252 30.5913C23.5252 26.6955 26.6946 23.5261 30.5903 23.5261C34.4861 23.5261 37.6555 26.6955 37.6555 30.5913C37.6555 34.487 34.4861 37.6564 30.5903 37.6564Z" fill="white"/>
</g>
<defs>
<clipPath id="clip0_1346_288">
<rect width="40" height="40" fill="white"/>
</clipPath>
</defs>
</svg>
