<svg width="50" height="50" viewBox="0 0 50 50" fill="none" xmlns="http://www.w3.org/2000/svg">
<path d="M19.1953 48.4369H14.0625C10.9375 48.4369 7.8125 47.6556 7.8125 42.9681C7.8125 38.2806 7.8125 35.9369 10.1562 32.8119C11.0938 31.5697 12.1484 30.9447 13.3828 30.2416C13.3984 30.2885 13.4219 30.3353 13.4453 30.3822C13.8203 31.14 14.5469 31.5931 15.3906 31.5931C16.1094 31.5931 16.7734 31.2728 17.4141 30.9603C17.8516 30.7572 18.4375 30.4681 18.75 30.4681C18.9609 30.4681 19.5312 30.4681 19.5312 31.9994C19.4688 32.4916 18.4687 33.976 17.8125 34.9603C16.3516 37.1244 14.8438 39.3588 14.8438 41.4056C14.8438 43.8588 17.0391 46.7338 19.1953 48.4369Z" fill="white"/>
<path d="M41.4062 9.14001C41.4062 9.31189 41.375 9.49158 41.3125 9.65564C41.0156 10.4213 39.9062 12.4994 36.7188 12.4994C36.7188 12.4994 34.375 12.4994 34.375 14.0619C34.375 14.7494 34.9766 16.0306 35.6562 17.7181C34.3672 18.1478 33.0703 18.9213 32.2578 20.2885C31.3203 21.851 31.2969 23.6791 31.2812 25.2963C31.2578 27.265 31.2031 28.5072 30.2734 29.2494C29.9062 29.5385 29.2031 29.9369 28.4609 30.351C27.4687 30.9056 26.2188 31.6088 24.9609 32.5306C24.9922 32.3666 25 32.1947 25 32.0306C25 27.9994 22.0703 25.5697 19.625 25.0931C19.8516 24.8197 20.0781 24.5228 20.3125 24.2181C23.3516 20.1713 24.75 16.1166 25.3594 13.765C25.6094 13.9916 25.9531 14.0619 26.5625 14.0619C28.125 14.0619 32.8125 14.0619 30.4687 7.81189C31.25 12.4994 28.9062 13.2806 27.3437 13.2806C26.4141 13.2806 26.0391 12.726 25.7187 12.1166C25.5078 11.6947 25.3125 11.2494 25 10.9369C24.2187 10.1556 23.4375 10.9369 23.4375 8.59314C23.4375 6.24939 26.5625 2.34314 31.25 2.34314C35.9375 2.34314 36.7188 6.24939 36.7188 6.24939C37.6484 7.17908 39.1328 7.55408 40.1797 7.71033C40.8828 7.81189 41.4062 8.42126 41.4062 9.14001Z" fill="white"/>
<path d="M6.25 32.8119C5.17188 36.0541 6.32813 37.7963 7.14844 38.5697C7.03125 39.851 7.03125 41.2729 7.03125 42.9682C7.03125 43.3197 7.04688 43.6557 7.08594 43.9682C2.28125 40.0541 1.67188 34.1947 3.90625 30.4682C6.25 26.5619 11.7188 25.7807 12.5 26.5619C12.5 26.5619 7.8125 28.1244 6.25 32.8119Z" fill="white"/>
<path d="M32.0312 42.9682C32.0312 42.9682 33.5937 45.14 33.5937 48.4369H38.2812C38.2812 48.4369 38.2812 46.0932 35.9375 46.0932C35.9375 46.0932 34.8359 44.1557 35.9375 41.4057C37.0391 38.6557 39.8437 38.7728 39.8437 34.3744C39.8437 29.976 38.2812 28.0932 38.2812 28.0932C38.2812 28.0932 38.2812 27.5463 38.8281 27.5463C39.375 27.5463 42.9609 27.6635 42.9609 26.5619C42.9609 25.4603 41.3984 24.5385 41.3984 23.4369C41.3984 22.3353 41.3984 21.0932 39.0547 21.0932C39.6016 20.5463 39.8359 18.7494 39.8359 18.7494C39.8359 18.7494 35.2344 18.3432 33.5859 21.0932C31.9375 23.8432 33.9922 28.2728 31.2422 30.4682C28.4922 32.6635 17.1484 35.7885 22.6484 48.4369H32.0234C32.0234 48.4369 31.875 46.0932 29.6797 46.0932C29.6797 46.0932 32.0234 44.476 32.0234 40.6244V42.9682H32.0312Z" fill="white"/>
<path d="M20.5859 44.3978C20.7812 45.5619 21.1484 46.8197 21.7109 48.1869C19.6016 47.2728 16.4062 43.851 16.4062 41.4056C16.4062 38.5541 21.0937 33.9291 21.0937 32.0306C21.0937 30.1322 20.3125 28.9056 18.75 28.9056C17.1875 28.9056 15.3906 30.7885 14.8437 29.6869C13.9609 27.9135 17.1875 26.5619 18.75 26.5619C20.3125 26.5619 23.4375 28.2338 23.4375 32.0306C23.4375 34.7806 18.75 38.5541 18.75 41.4056C18.75 43.3978 19.8984 44.1322 20.5859 44.3978Z" fill="white"/>
</svg>
