<svg width="932" height="866" viewBox="0 0 932 866" fill="none" xmlns="http://www.w3.org/2000/svg">
<path d="M809.592 217.287C836.009 315.879 817.135 440.087 766.796 546.355C716.445 652.649 634.907 740.4 536.578 766.747C339.293 819.609 136.508 702.532 83.6458 505.246C57.2312 406.666 77.0482 320.935 128.016 253.209C179.036 185.413 261.413 135.488 360.331 108.983C459.684 82.3613 559.022 60.3667 640.086 69.6483C680.555 74.2818 716.32 86.6978 745.237 110.108C774.137 133.505 796.397 168.045 809.592 217.287Z" stroke="#FABE3D" stroke-width="5"/>
<path d="M772.667 241.253C819.838 417.297 705.161 683.804 529.117 730.975C353.074 778.146 172.122 673.674 124.952 497.63C77.7809 321.586 195.712 190.863 371.756 143.692C547.799 96.5215 725.496 65.2093 772.667 241.253Z" fill="#FFF7E5"/>
<mask id="mask0_1346_138" style="mask-type:alpha" maskUnits="userSpaceOnUse" x="114" y="106" width="670" height="637">
<path d="M772.667 241.253C819.838 417.297 705.161 683.804 529.117 730.975C353.074 778.146 172.122 673.674 124.952 497.63C77.7809 321.586 195.712 190.863 371.756 143.692C547.799 96.5215 725.496 65.2093 772.667 241.253Z" fill="#FFF7E5"/>
</mask>
<g mask="url(#mask0_1346_138)">
</g>
</svg>
