<svg width="165" height="65" viewBox="0 0 165 65" fill="none" xmlns="http://www.w3.org/2000/svg">
<path d="M3.45 50V15H16.55C19.3833 15 21.7333 15.4833 23.6 16.45C25.4667 17.4167 26.85 18.7167 27.75 20.35C28.65 21.9833 29.1 23.85 29.1 25.95C29.1 27.8833 28.6667 29.6667 27.8 31.3C26.9333 32.9333 25.5667 34.2667 23.7 35.3C21.8333 36.3 19.45 36.8 16.55 36.8H10.2V50H3.45ZM10.2 31.35H16.15C18.3167 31.35 19.8667 30.8667 20.8 29.9C21.7667 28.9 22.25 27.5833 22.25 25.95C22.25 24.2167 21.7667 22.8833 20.8 21.95C19.8667 20.9833 18.3167 20.5 16.15 20.5H10.2V31.35ZM44.8434 50.6C42.31 50.6 40.06 50.0667 38.0934 49C36.16 47.9 34.6434 46.3833 33.5434 44.45C32.4767 42.4833 31.9434 40.2167 31.9434 37.65C31.9434 35.0167 32.4767 32.7 33.5434 30.7C34.6434 28.6667 36.16 27.0833 38.0934 25.95C40.0267 24.7833 42.2767 24.2 44.8434 24.2C47.3434 24.2 49.5267 24.75 51.3934 25.85C53.26 26.95 54.71 28.4333 55.7434 30.3C56.7767 32.1667 57.2934 34.2833 57.2934 36.65C57.2934 36.9833 57.2934 37.3667 57.2934 37.8C57.2934 38.2 57.26 38.6167 57.1934 39.05H36.7434V34.95H50.4934C50.3934 33.3167 49.81 32.0333 48.7434 31.1C47.71 30.1667 46.41 29.7 44.8434 29.7C43.71 29.7 42.66 29.9667 41.6934 30.5C40.7267 31 39.96 31.7833 39.3934 32.85C38.86 33.9167 38.5934 35.2667 38.5934 36.9V38.35C38.5934 39.7167 38.8434 40.9167 39.3434 41.95C39.8767 42.95 40.61 43.7333 41.5434 44.3C42.4767 44.8333 43.56 45.1 44.7934 45.1C46.0267 45.1 47.0434 44.8333 47.8434 44.3C48.6767 43.7667 49.2934 43.0833 49.6934 42.25H56.5934C56.1267 43.8167 55.3434 45.2333 54.2434 46.5C53.1434 47.7667 51.7934 48.7667 50.1934 49.5C48.5934 50.2333 46.81 50.6 44.8434 50.6ZM73.8297 50C72.063 50 70.513 49.7333 69.1797 49.2C67.8797 48.6333 66.863 47.7167 66.1297 46.45C65.3964 45.15 65.0297 43.3833 65.0297 41.15V30.45H60.7297V24.8H65.0297L65.7797 17.95H71.7797V24.8H78.4297V30.45H71.7797V41.25C71.7797 42.3833 72.0297 43.1667 72.5297 43.6C73.0297 44.0333 73.8797 44.25 75.0797 44.25H78.3797V50H73.8297ZM84.1105 50V14H90.8605V50H84.1105ZM109.341 50.6C106.941 50.6 104.774 50.05 102.841 48.95C100.941 47.8167 99.424 46.2667 98.2906 44.3C97.1906 42.3 96.6406 40.0167 96.6406 37.45C96.6406 34.8167 97.1906 32.5167 98.2906 30.55C99.424 28.55 100.957 27 102.891 25.9C104.824 24.7667 106.991 24.2 109.391 24.2C111.824 24.2 113.991 24.7667 115.891 25.9C117.824 27 119.341 28.55 120.441 30.55C121.574 32.5167 122.141 34.8 122.141 37.4C122.141 40 121.574 42.3 120.441 44.3C119.341 46.2667 117.824 47.8167 115.891 48.95C113.957 50.05 111.774 50.6 109.341 50.6ZM109.341 44.75C110.474 44.75 111.474 44.4833 112.341 43.95C113.241 43.4167 113.941 42.6 114.441 41.5C114.974 40.4 115.241 39.0333 115.241 37.4C115.241 35.7667 114.974 34.4167 114.441 33.35C113.941 32.25 113.241 31.4333 112.341 30.9C111.474 30.3333 110.491 30.05 109.391 30.05C108.324 30.05 107.341 30.3333 106.441 30.9C105.541 31.4333 104.824 32.25 104.291 33.35C103.791 34.4167 103.541 35.7667 103.541 37.4C103.541 39.0333 103.791 40.4 104.291 41.5C104.824 42.6 105.524 43.4167 106.391 43.95C107.291 44.4833 108.274 44.75 109.341 44.75ZM124.29 50L133.34 37.4L124.29 24.8H131.59L137.64 33.45L143.69 24.8H150.94L141.89 37.4L150.94 50H143.69L137.64 41.3L131.59 50H124.29ZM158.254 50.25C156.988 50.25 155.971 49.8833 155.204 49.15C154.438 48.3833 154.054 47.45 154.054 46.35C154.054 45.25 154.438 44.3333 155.204 43.6C155.971 42.8333 156.988 42.45 158.254 42.45C159.454 42.45 160.438 42.8333 161.204 43.6C161.971 44.3333 162.354 45.25 162.354 46.35C162.354 47.45 161.971 48.3833 161.204 49.15C160.438 49.8833 159.454 50.25 158.254 50.25Z" fill="black"/>
<g clip-path="url(#clip0_1346_522)">
<path d="M119.084 21.7839L118.008 21.1139C119.138 19.9231 120.467 17.4723 118.92 13.1363C118.92 13.1363 113.337 14.4713 112.75 17.8393L111.268 16.9168C110.107 13.8044 110.593 8.72167 123.62 5.85885C123.62 5.85885 128.125 19.7127 119.084 21.7839Z" fill="black"/>
</g>
<g clip-path="url(#clip1_1346_522)">
<path d="M102.748 21.7839L103.823 21.1139C102.693 19.9231 101.364 17.4723 102.911 13.1363C102.911 13.1363 108.495 14.4713 109.082 17.8393L110.563 16.9168C111.725 13.8044 111.238 8.72167 98.2115 5.85885C98.2115 5.85885 93.7069 19.7127 102.748 21.7839Z" fill="black"/>
</g>
<defs>
<clipPath id="clip0_1346_522">
<rect width="16.7536" height="16.7536" fill="white" transform="translate(116.61 1) rotate(31.9131)"/>
</clipPath>
<clipPath id="clip1_1346_522">
<rect width="16.7536" height="16.7536" fill="white" transform="matrix(-0.848851 0.528632 0.528632 0.848851 105.221 1)"/>
</clipPath>
</defs>
</svg>
